PathFileType	4	(X/Y/Z)	/home/abdul/Desktop/myosuite/custom_workspace/IK/output/S16_12_3.trc
DataRate	CameraRate	NumFrames	NumMarkers	Units	OrigDataRate	OrigDataStartFrame	OrigNumFrames
200.0	200.0	28	3	mm	200.0	611	1220
Frame#	Time	V_Shoulder			V_Elbow			V_Wrist		
		X1	Y1	Z1	X2	Y2	Z2	X3	Y3	Z3

611	3.05	-118.24135306145864	614.259807369229	311.63209909893965	-258.673182958005	439.9212983739742	81.36892926307766	-107.86702089055255	331.9536253479461	240.42475162391906
612	3.055	-118.32323630534087	614.0773004146745	311.5287929259574	-259.0318487446351	440.1935915473563	80.94144246881498	-108.03872210346799	330.21823686551454	238.32725284160253
613	3.06	-118.40369291035614	613.8913150132063	311.42571106779906	-259.3841053540741	440.4573988951096	80.51648902535943	-108.20769128292815	328.47820210292355	236.20309489015358
614	3.065	-118.48265956908985	613.7018369630531	311.32292298474425	-259.7295346931812	440.7122622318435	80.09436069693638	-108.37376112076467	326.73476336974494	234.05357692584477
615	3.07	-118.56007342271123	613.5088540583367	311.2204977278882	-260.0677284677901	440.9577377123441	79.67534090392653	-108.5367705413059	324.9891530541517	231.88003497246
616	3.075	-118.63587214813754	613.3123562014079	311.11850380105227	-260.39828897112125	441.1933968500273	79.25970414648765	-108.69656506906875	323.2425907391281	229.68383937384277
617	3.08	-118.7099940458753	613.1123355095668	311.01700902365536	-260.7208298439715	441.4188274885462	78.84771546045847	-108.85299718188024	321.49628038733954	227.466392173674
618	3.085	-118.78237812833163	612.9087864159515	310.916080394934	-261.0349768049855	441.63363472406604	78.43962990717645	-109.00592664832811	319.75140760453405	225.2291244301038
619	3.09	-118.85296420838631	612.7017057643965	310.81578395989305	-261.3403683494249	441.83744177591836	78.03569209867452	-109.15522084847645	318.0091369909017	222.97349347300417
620	3.095	-118.9216929880162	612.4910928980845	310.7161846773638	-261.63665641496357	442.02989080353905	77.6361357595504	-109.30075507682108	316.2706095893396	220.70098011172723
621	3.1	-118.98850614676185	612.2769497418197	310.61734629053956	-261.92350701315166	442.21064366780206	77.24118332663033	-109.44241282650214	314.53694043905216	218.41308580134404
622	3.105	-119.05334642982757	612.0592808777811	310.51933120035056	-262.2006008253094	442.3793826350632	76.8510455873722	-109.58008605383444	312.8092162423776	216.11132977540018
623	3.11	-119.11615773560636	611.8380936146242	310.42220034203115	-262.4676337617249	442.5358110224378	76.46592135777881	-109.71367542226261	311.0884931521593	213.79724615326097
624	3.115	-119.17688520242412	611.6133980498163	310.32601306522207	-262.72431748315444	442.67965378304234	76.08599720041471	-109.84309052489651	309.37579468638603	211.47238103012683
625	3.12	-119.23547529429813	611.385207125115	310.2308270179392	-262.97037988373495	442.8106580301435	75.71144718294568	-109.96825008483219	307.67210977621477	209.13828955778095
626	3.125	-119.29187588550896	611.1535366751087	310.1366980347278	-263.20556553454225	442.92859349936384	75.34243267744652	-110.08908213251706	305.97839095285417	206.79653302408508
627	3.13	-119.34603634378747	610.918405468762	310.04368002930875	-263.4296360871426	443.03325294830404	74.979102200552	-110.20552415947125	304.2955526781428	204.44867593916808
628	3.135	-119.39790761192256	610.6798352439233	309.95182489200783	-263.64237063660255	443.1244524931452	74.62159129435805	-110.31752324773417	302.62446982300014	202.09628313615355
629	3.14	-119.44744228759986	610.4378507347728	309.86118239224476	-263.8435660435372	443.2020318820032	74.27002244781713	-110.4250361744628	300.9659762972618	199.74091689415076
630	3.145	-119.49459470128608	610.1924796922	309.7718000863436	-264.03303721489004	443.2658547050031	73.92450505821267	-110.52802949116885	299.32086383374417	197.3841340910847
631	3.15	-119.53932099197914	609.943752897127	309.6837232309083	-264.2106173432495	443.3158085412414	73.58513543214471	-110.62647957714343	297.6898809287081	195.02748339377035
632	3.155	-119.58157918064963	609.6917041668017	309.5969947019898	-264.3761581046151	443.35180504299615	73.25199682531054	-110.72037266668173	296.0737319402275	192.67250249244265
633	3.16	-119.62132924120544	609.4363703541089	309.51165492025433	-264.52952981463454	443.3737799577317	72.92515952022441	-110.80970484978599	294.47307634530057	190.3207153867357
634	3.165	-119.65853316881798	609.1777913399586	309.42774178234305	-264.67062154343694	443.3816930886271	72.60468094088586	-110.89448204609238	292.8885281558843	187.9736297298705
635	3.17	-119.69315504545477	608.9160100188307	309.3452905985932	-264.79934118928736	443.37552819453447	72.29060580328027	-110.9747199518368	291.320655493389	185.63273423755052
636	3.175	-119.72516110247074	608.6510722775711	309.2643340372732	-264.9156155113875	443.3552928304396	71.98296630047744	-111.0504439597457	289.7699803205326	183.29949616779192
637	3.18	-119.75451978011779	608.3830269675464	309.1849020754643	-265.0193901222418	443.3210181296648	71.68178232098299	-111.12168905181092	288.2369783288383	180.97535887762035
638	3.185	-119.78120178384006	608.1119258702851	309.10702195669745	-265.1106294400995	443.27275852920405	71.38706169889694	-111.18849966498206	286.7220789794592	178.66173946225837
